<svg width="404" height="94" viewBox="0 0 404 94" fill="none" xmlns="http://www.w3.org/2000/svg">
<path d="M173.167 1V9.5H168.444C165.94 9.5 163.537 10.3955 161.766 11.9896C159.995 13.5837 159 15.7457 159 18V77.5C159 79.7543 159.995 81.9163 161.766 83.5104C163.537 85.1045 165.94 86 168.444 86H234.556C237.06 86 239.463 85.1045 241.234 83.5104C243.005 81.9163 244 79.7543 244 77.5V18C244 15.7457 243.005 13.5837 241.234 11.9896C239.463 10.3955 237.06 9.5 234.556 9.5H229.833V1H220.389V9.5H182.611V1H173.167ZM168.444 30.75H234.556V77.5H168.444V30.75ZM202.397 35C198.289 35 194.983 35.85 192.433 37.5075C189.978 39.25 188.75 41.6725 188.797 45.03L188.844 45.1575H197.958C198.006 43.8825 198.431 42.905 199.281 42.225C200.155 41.5724 201.262 41.2253 202.397 41.2475C203.861 41.2475 205.089 41.6725 205.939 42.4375C206.789 43.245 207.167 44.35 207.167 45.625C207.167 46.985 206.836 48.1325 206.081 49.11C205.419 50.0875 204.428 50.9375 203.2 51.6175C200.792 53.0625 199.139 54.3375 198.242 55.485C197.297 56.59 196.778 58.375 196.778 60.5H206.222C206.222 59.1825 206.411 58.12 206.836 57.355C207.261 56.59 208.064 55.825 209.244 55.145C211.369 54.125 213.117 52.8925 214.486 51.1925C215.856 49.4925 216.564 47.75 216.564 45.625C216.564 42.395 215.289 39.8025 212.739 37.89C210.236 35.9775 206.789 35 202.397 35ZM196.778 64.75V73.25H206.222V64.75H196.778Z" fill="black"/>
</svg>
