<svg width="404" height="94" viewBox="0 0 404 94" fill="none" xmlns="http://www.w3.org/2000/svg">
<path d="M179.316 9.5L226.883 55.8336L235.357 47.5792L240.993 53.0691L231.12 62.6862L243.831 75.0678C245.39 76.5863 245.39 79.0393 243.831 80.5578L240.993 83.3222C240.623 83.6831 240.184 83.9695 239.7 84.1649C239.217 84.3603 238.698 84.4608 238.175 84.4608C237.651 84.4608 237.133 84.3603 236.649 84.1649C236.166 83.9695 235.727 83.6831 235.357 83.3222L222.486 70.9796L212.733 80.5967L207.097 75.1068L215.571 66.8524L168.004 20.5188V9.5H179.316ZM218.049 38.9354L236.996 20.4799V9.5H225.684L206.737 27.9555L218.049 38.9354ZM198.263 58.4033L186.951 47.2288L178.117 55.8336L169.643 47.5792L164.007 53.0691L173.88 62.6862L161.169 75.1068C160.798 75.467 160.504 75.8948 160.304 76.3658C160.103 76.8369 160 77.3418 160 77.8517C160 78.3617 160.103 78.8666 160.304 79.3376C160.504 79.8086 160.798 80.2365 161.169 80.5967L164.007 83.3611C165.566 84.8796 168.084 84.8796 169.643 83.3611L182.514 70.9796L192.267 80.5967L197.903 75.1068L189.429 66.8524L198.263 58.4033Z" fill="black"/>
</svg>
