<svg width="385" height="94" viewBox="0 0 385 94" fill="none" xmlns="http://www.w3.org/2000/svg">
<path d="M164.167 1V9.5H159.444C156.94 9.5 154.537 10.3955 152.766 11.9896C150.995 13.5837 150 15.7457 150 18V77.5C150 79.7543 150.995 81.9163 152.766 83.5104C154.537 85.1045 156.94 86 159.444 86H225.556C228.06 86 230.463 85.1045 232.234 83.5104C234.005 81.9163 235 79.7543 235 77.5V18C235 15.7457 234.005 13.5837 232.234 11.9896C230.463 10.3955 228.06 9.5 225.556 9.5H220.833V1H211.389V9.5H173.611V1H164.167ZM159.444 30.75H225.556V77.5H159.444V30.75ZM193.397 35C189.289 35 185.983 35.85 183.433 37.5075C180.978 39.25 179.75 41.6725 179.797 45.03L179.844 45.1575H188.958C189.006 43.8825 189.431 42.905 190.281 42.225C191.155 41.5724 192.262 41.2253 193.397 41.2475C194.861 41.2475 196.089 41.6725 196.939 42.4375C197.789 43.245 198.167 44.35 198.167 45.625C198.167 46.985 197.836 48.1325 197.081 49.11C196.419 50.0875 195.428 50.9375 194.2 51.6175C191.792 53.0625 190.139 54.3375 189.242 55.485C188.297 56.59 187.778 58.375 187.778 60.5H197.222C197.222 59.1825 197.411 58.12 197.836 57.355C198.261 56.59 199.064 55.825 200.244 55.145C202.369 54.125 204.117 52.8925 205.486 51.1925C206.856 49.4925 207.564 47.75 207.564 45.625C207.564 42.395 206.289 39.8025 203.739 37.89C201.236 35.9775 197.789 35 193.397 35ZM187.778 64.75V73.25H197.222V64.75H187.778Z" fill="black"/>
</svg>
