<svg width="385" height="94" viewBox="0 0 385 94" fill="none" xmlns="http://www.w3.org/2000/svg">
<path d="M170.316 9.5L217.883 55.8336L226.357 47.5792L231.993 53.0691L222.12 62.6862L234.831 75.0678C236.39 76.5863 236.39 79.0393 234.831 80.5578L231.993 83.3222C231.623 83.6831 231.184 83.9695 230.7 84.1649C230.217 84.3603 229.698 84.4608 229.175 84.4608C228.651 84.4608 228.133 84.3603 227.649 84.1649C227.166 83.9695 226.727 83.6831 226.357 83.3222L213.486 70.9796L203.733 80.5967L198.097 75.1068L206.571 66.8524L159.004 20.5188V9.5H170.316ZM209.049 38.9354L227.996 20.4799V9.5H216.684L197.737 27.9555L209.049 38.9354ZM189.263 58.4033L177.951 47.2288L169.117 55.8336L160.643 47.5792L155.007 53.0691L164.88 62.6862L152.169 75.1068C151.798 75.467 151.504 75.8948 151.304 76.3658C151.103 76.8369 151 77.3418 151 77.8517C151 78.3617 151.103 78.8666 151.304 79.3376C151.504 79.8086 151.798 80.2365 152.169 80.5967L155.007 83.3611C156.566 84.8796 159.084 84.8796 160.643 83.3611L173.514 70.9796L183.267 80.5967L188.903 75.1068L180.429 66.8524L189.263 58.4033Z" fill="black"/>
</svg>
